<svg width="92" height="92" viewBox="0 0 92 92" fill="none" xmlns="http://www.w3.org/2000/svg">
<rect width="91.5618" height="91.5618" rx="20" fill="#111111"/>
<path d="M41.3772 45.2731C41.3772 45.2731 45.7104 44.9435 45.7104 39.754C45.7104 34.5687 42.7715 32.0126 38.2794 32.0126L22.8906 31.9883V60.644H38.6373C38.6373 60.644 46.5106 60.8933 46.5106 52.0473C46.5106 52.0473 47.0889 45.2731 41.3772 45.2731ZM28.6167 36.2866H36.49C36.49 36.2866 39.1841 36.331 39.1841 39.827C39.1841 43.4506 36.49 43.4506 36.49 43.4506H28.6167V36.2866ZM37.2057 56.3456H28.6167V47.7489H37.2057C37.2057 47.7489 41.5003 47.7933 41.5003 52.0473C41.5003 56.3012 37.8242 56.3456 37.2057 56.3456Z" fill="white"/>
<path d="M58.6788 39.1533C47.9238 39.1533 47.9424 49.8992 47.9424 49.8992C47.9424 49.8992 47.2267 60.6451 58.6788 60.6451C58.6788 60.6451 68.6993 60.6451 68.6993 52.0484H62.9733C62.9733 52.0484 62.9733 56.3467 58.6788 56.3467C58.6788 56.3467 54.3842 56.3467 54.3842 50.6156C54.3842 50.6156 65.8363 50.6156 68.6993 50.6156C68.6993 47.75 68.6993 39.1533 58.6788 39.1533ZM54.3842 47.75C54.3842 47.75 54.2898 43.4517 58.6788 43.4517C63.0663 43.4517 62.9733 47.75 62.9733 47.75H54.3842Z" fill="white"/>
<path d="M64.4052 34.8545H52.9531V37.7201H64.4052V34.8545Z" fill="white"/>
</svg>
