<svg width="92" height="93" viewBox="0 0 92 93" fill="none" xmlns="http://www.w3.org/2000/svg">
<rect y="0.803711" width="91.5618" height="91.5618" rx="20" fill="#ED1C40"/>
<path d="M26.5141 66.6556C26.6404 67.3441 26.2332 67.9906 25.5593 68.1311C24.9134 68.2576 24.2535 67.8501 24.1272 67.1755C24.0008 66.5291 24.408 65.8405 25.0538 65.7C25.6857 65.5594 26.3736 65.967 26.5141 66.6556ZM43.6434 75.2138C42.8852 75.7618 42.6886 76.8158 43.1941 77.6168C43.7416 78.4038 44.7947 78.6146 45.595 78.0665C46.3532 77.5185 46.5497 76.4645 46.0022 75.6635C45.4967 74.8765 44.4437 74.6657 43.6434 75.2138ZM33.3517 19.8032C34.1099 19.6345 34.5873 18.8757 34.4188 18.1309C34.2924 17.3439 33.5343 16.8661 32.7761 17.0348C32.0179 17.2034 31.5405 17.9623 31.6809 18.7071C31.8494 19.5081 32.5936 19.9859 33.3517 19.8032ZM18.7778 44.1288C17.5843 43.2996 15.9416 43.6088 15.1132 44.8455C14.2848 46.0399 14.5937 47.7263 15.8012 48.5554C16.9946 49.4126 18.6374 49.1035 19.4658 47.8668C20.2801 46.6161 19.9712 44.9719 18.7778 44.1288ZM51.3516 23.6396C52.6152 22.8808 52.9943 21.2366 52.2782 20.014C51.52 18.7492 49.9194 18.3417 48.6839 19.0865C47.4483 19.8313 47.0411 21.4895 47.7993 22.7543C48.5014 23.9909 50.116 24.3985 51.3516 23.6396ZM28.4657 30.5958C29.3923 29.9494 29.5889 28.6846 28.9852 27.7571C28.3814 26.8296 27.1037 26.6329 26.2192 27.2372C25.2925 27.8836 25.096 29.1484 25.6997 30.0759C26.3034 31.0174 27.5671 31.2141 28.4657 30.5958ZM73.044 49.2862C72.1595 49.4829 71.5698 50.3823 71.7804 51.3098C71.9489 52.1951 72.8474 52.7853 73.732 52.5745C74.6165 52.4059 75.2062 51.5065 74.9956 50.579C74.8131 49.7078 73.9286 49.1175 73.044 49.2862ZM77.7897 42.4846C77.6633 41.796 77.0034 41.3884 76.3575 41.529C75.6696 41.6554 75.2624 42.3581 75.4028 43.0326C75.5292 43.6791 76.1891 44.1288 76.877 43.9882C77.5229 43.8196 77.9582 43.1732 77.7897 42.4846ZM68.186 33.6453C67.1611 34.362 66.9224 35.7673 67.5963 36.7931C68.2843 37.819 69.6743 38.0579 70.7133 37.3834C71.7102 36.6667 71.9489 35.2614 71.2609 34.2355C70.5729 33.1956 69.1688 32.9286 68.186 33.6453ZM67.4278 50.3542C70.5729 55.5257 69.2391 62.3413 64.2828 65.8264C62.2048 67.302 59.846 67.9484 57.4732 67.8782C56.0411 73.5274 49.1612 75.6213 44.893 71.7849C44.7666 71.8973 44.5841 71.9816 44.4437 72.1362C39.7682 75.3824 33.3939 74.216 30.1505 69.4661C28.9852 67.7517 28.3955 65.7983 28.3393 63.845C20.5047 62.5381 17.5563 52.5745 23.4111 47.108C20.0274 41.4868 23.4813 34.2355 29.7995 33.3361C32.8042 25.3962 42.6886 21.6441 49.3859 26.8437C57.4591 24.1736 65.7009 30.371 65.055 38.9573C69.9832 40.4609 71.3872 46.9674 67.4278 50.3542ZM59.0457 59.2637C58.6807 56.7904 54.1456 58.7157 53.8788 56.0175C53.5138 52.1811 59.1159 43.9039 58.6666 40.6717C58.2594 37.7909 56.3499 37.1866 54.6651 37.1445C53.0645 37.1023 52.6433 37.3834 52.0957 37.6925C51.7447 37.8893 51.3094 38.2827 50.6917 37.6504C49.9335 36.9337 49.3578 36.2451 48.375 36.1045C46.9007 35.8656 46.2549 36.3434 45.1878 37.2709C44.7806 37.6223 43.7557 38.8168 42.7869 38.3671C42.3797 38.1703 40.9476 37.4396 39.9086 37.0039C37.957 36.1467 35.1208 37.552 34.0959 39.407C32.5514 42.1473 29.5468 52.968 29.0975 54.4014C28.0725 57.5914 30.4032 60.2193 33.5202 60.0507C34.8541 59.9804 35.7105 59.5026 36.567 57.9709C37.0444 57.0855 41.5654 45.0703 41.9024 44.4801C42.141 44.0725 42.9694 43.5245 43.6574 43.8758C44.3454 44.2412 44.4858 45 44.3735 45.6886C44.2471 46.855 41.0178 54.1906 40.9195 55.0057C40.5124 57.746 44.1348 58.1957 45.5388 55.4835C45.9881 54.6263 51.0146 44.3817 51.4498 43.7072C51.9693 42.9483 52.3344 42.7094 52.8539 42.7516C53.2189 42.7516 53.8507 42.864 53.7103 44.0585C53.5419 45.1827 49.5123 52.7291 49.0489 54.5701C48.5014 57.0434 49.8352 59.5307 52.0255 60.6409C53.4015 61.2733 59.5231 62.4678 59.0457 59.2637ZM59.7337 70.3234C58.4981 71.2087 58.1892 72.9653 59.0457 74.2301C59.9022 75.4948 61.6151 75.804 62.8787 74.9468C64.1424 74.0614 64.4513 72.3048 63.5948 71.0401C62.7103 69.7753 60.9973 69.424 59.7337 70.3234Z" fill="white"/>
</svg>
