<svg width="92" height="92" viewBox="0 0 92 92" fill="none" xmlns="http://www.w3.org/2000/svg">
<rect width="91.5618" height="91.5618" rx="20" fill="black"/>
<path fill-rule="evenodd" clip-rule="evenodd" d="M55.6702 39.5578C58.7368 41.7398 62.4092 42.9056 66.1717 42.8914V35.4281C65.432 35.4301 64.6944 35.3509 63.972 35.1917V41.1375C60.201 41.1442 56.5232 39.9651 53.458 37.7666V53.1162C53.4487 55.635 52.7586 58.1043 51.4608 60.2623C50.163 62.4202 48.306 64.1865 46.0865 65.3737C43.8671 66.5609 41.368 67.1248 38.8543 67.0057C36.3406 66.8865 33.906 66.0887 31.8086 64.6969C33.7486 66.6616 36.2275 68.0058 38.9314 68.5595C41.6352 69.1131 44.4424 68.8512 46.9975 67.807C49.5525 66.7627 51.7405 64.9831 53.2844 62.6934C54.8283 60.4038 55.6586 57.7071 55.6702 54.9448V39.5578ZM58.3919 31.9452C56.8324 30.2533 55.8755 28.093 55.6702 25.8003V24.8301H53.5823C53.8404 26.2874 54.402 27.674 55.2306 28.8999C56.0592 30.1257 57.1363 31.1633 58.3919 31.9452ZM36.643 58.7884C35.9194 57.8413 35.4759 56.7098 35.3631 55.5228C35.2503 54.3358 35.4726 53.141 36.0049 52.0742C36.5371 51.0075 37.3579 50.1118 38.3737 49.4889C39.3895 48.8661 40.5597 48.5412 41.7509 48.5511C42.4086 48.5509 43.0624 48.6516 43.6897 48.8497V41.1375C42.9565 41.0403 42.217 40.9988 41.4775 41.0131V47.0087C39.9503 46.5255 38.2973 46.6354 36.8473 47.3165C35.3973 47.9976 34.2566 49.2 33.652 50.6846C33.0474 52.1691 33.0233 53.8271 33.5844 55.3286C34.1455 56.8302 35.2508 58.0653 36.6803 58.7884H36.643Z" fill="#EE1D52"/>
<path fill-rule="evenodd" clip-rule="evenodd" d="M53.4569 37.7168C56.5221 39.9153 60.1999 41.0945 63.9709 41.0878V35.142C61.8224 34.6873 59.8706 33.5691 58.3908 31.9452C57.1353 31.1633 56.0582 30.1257 55.2295 28.8999C54.4009 27.674 53.8393 26.2874 53.5812 24.8301H48.0881V54.9448C48.083 56.2777 47.6609 57.5756 46.8812 58.6563C46.1014 59.7369 45.0032 60.546 43.7405 60.97C42.4779 61.394 41.1143 61.4116 39.8412 61.0203C38.568 60.6291 37.4493 59.8486 36.642 58.7884C35.3626 58.1423 34.3379 57.0836 33.7334 55.7831C33.1289 54.4826 32.9798 53.0162 33.3101 51.6205C33.6404 50.2248 34.4309 48.9812 35.554 48.0903C36.6771 47.1994 38.0673 46.7132 39.5004 46.7102C40.1579 46.7123 40.8114 46.8129 41.4391 47.0087V41.0131C38.7269 41.0783 36.0926 41.9347 33.8598 43.4772C31.6269 45.0197 29.8926 47.1811 28.8698 49.6962C27.847 52.2113 27.5801 54.9706 28.102 57.6354C28.6238 60.3001 29.9117 62.7544 31.8075 64.6969C33.9054 66.0987 36.3438 66.9048 38.8632 67.0291C41.3825 67.1535 43.8884 66.5916 46.1139 65.4032C48.3394 64.2148 50.2011 62.4444 51.5008 60.2807C52.8005 58.117 53.4894 55.6409 53.4942 53.1162L53.4569 37.7168Z" fill="white"/>
<path fill-rule="evenodd" clip-rule="evenodd" d="M63.9716 35.1411V33.5365C61.9985 33.5449 60.0635 32.9928 58.3915 31.9443C59.8676 33.573 61.8209 34.6921 63.9716 35.1411ZM53.5819 24.8292C53.5819 24.5431 53.4949 24.2446 53.4576 23.9585V22.9883H45.8766V53.1154C45.87 54.8023 45.195 56.4178 43.9997 57.6071C42.8044 58.7965 41.1865 59.4626 39.5011 59.4593C38.5087 59.4642 37.5292 59.2341 36.6427 58.7876C37.45 59.8477 38.5687 60.6282 39.8419 61.0195C41.115 61.4108 42.4786 61.3932 43.7412 60.9692C45.0039 60.5452 46.1021 59.7361 46.8819 58.6555C47.6616 57.5748 48.0836 56.2769 48.0888 54.9439V24.8292H53.5819ZM41.4398 40.9999V39.2957C38.3203 38.8716 35.1492 39.5174 32.4433 41.1281C29.7375 42.7387 27.6564 45.2191 26.5394 48.1651C25.4223 51.111 25.335 54.3488 26.2918 57.3508C27.2486 60.3527 29.193 62.9418 31.8082 64.6961C29.9268 62.7491 28.6526 60.2958 28.1414 57.6359C27.6302 54.976 27.904 52.2246 28.9295 49.7179C29.9551 47.2113 31.6878 45.0578 33.9161 43.5206C36.1443 41.9835 38.7717 41.1292 41.4771 41.0621L41.4398 40.9999Z" fill="#69C9D0"/>
</svg>
