<svg width="92" height="93" viewBox="0 0 92 93" fill="none" xmlns="http://www.w3.org/2000/svg">
<rect y="0.682617" width="91.56" height="91.56" rx="20" fill="#9146FF"/>
<path d="M58.2493 49.7983L51.6489 55.9221H45.0485L39.2731 61.2804V55.9221H31.8477V32.958H58.2493V49.7983Z" fill="#9146FF"/>
<path d="M35.3292 26.5586L33.3387 28.549L29.8555 50.9414L40.3053 56.4151L41.7981 58.4056L51.7503 54.9223L62.6976 46.4629L63.1953 38.5012L62.6976 27.0562L61.2048 26.5586H35.3292Z" fill="white"/>
<path d="M34.1255 24.9893L25.875 32.644V60.2009H35.7756V67.8556L44.0261 60.2009H50.6265L65.4774 46.4224V24.9893H34.1255ZM62.1772 44.8915L55.5768 51.0152H48.9764L43.2011 56.3735V51.0152H35.7756V28.0511H62.1772V44.8915Z" fill="black"/>
<path d="M57.2279 33.4092H53.9277V42.5948H57.2279V33.4092Z" fill="black"/>
<path d="M48.1537 33.4092H44.8535V42.5948H48.1537V33.4092Z" fill="black"/>
</svg>
